# xmcd
#
# Track frame offsets:
#	150
#	16125
#	31725
#	52725
#	77262
#	99487
#
# Disc length: 1573 seconds
#
# Revision: 1
# Processed by: cddbd v1.5.1PL0 Copyright (c) Steve Scherf et al.
# Submitted via: CDex 1.50Beta5
#
DISCID=2d062306
DTITLE=織田裕二 - SONGS
DYEAR=1900
DGENRE=Pop
TTITLE0=Hold You Tight
TTITLE1=Boom Boom Boom
TTITLE2=週末だけは少年
TTITLE3=歌えなかったラヴ・ソング
TTITLE4=現在[いま]、この瞬間から
TTITLE5=Hold You Tight [Live Version]
EXTD=
EXTT0=
EXTT1=
EXTT2=
EXTT3=
EXTT4=
EXTT5=
PLAYORDER=
